{"title":"Formula.1.2016x13.Belgium.Qualifying.SkyF1HD.1080p50-smcgill1969","uid":15713484,"size":7055882469,"categoryP":"video","categoryS":"other","magnet":"?xt=urn:btih:eb2862b132da69ff0169699d2853f2eee3850b35&amp;dn=Formula.1.2016x13.Belgium.Qualifying.SkyF1HD.1080p50-smcgill1969&amp;tr=udp%3A%2F%2Ftracker.leechers-paradise.org%3A6969&amp;tr=udp%3A%2F%2Fzer0day.ch%3A1337&amp;tr=udp%3A%2F%2Fopen.demonii.com%3A1337&amp;tr=udp%3A%2F%2Ftracker.coppersurfer.tk%3A6969&amp;tr=udp%3A%2F%2Fexodus.desync.com%3A6969","seeders":7,"leechers":2,"uploader":null,"files":3,"time":1472600633,"description":"Formula.1.2016x13.Belgium.Qualifying.SkyF1HD.1080p50-smcgill1969\r\n\r\nBelgian Grand Prix qualifying from Circuit de Spa-Francorchamps.\r\n\r\n Video\r\n ID : 1\r\n Format : AVC\r\n Format/Info : Advanced Video Codec\r\n Format profile :   \r\n Format settings, CABAC : Yes\r\n Format settings, ReFrames : 2 frames\r\n Format settings, GOP : M=3, N=24\r\n Codec ID : avc1\r\n Codec ID/Info : Advanced Video Coding\r\n Duration : 55mn 5s\r\n Duration_FirstFrame : 3ms\r\n Bit rate mode : Variable\r\n Bit rate : 5 997 Kbps\r\n Maximum bit rate : 12.4 Mbps\r\n Width : 1 920 pixels\r\n Height : 1 080 pixels\r\n Original height : 1 088 pixels\r\n Display aspect ratio : 16:9\r\n Original display aspect ratio : 16:9\r\n Frame rate mode : Constant\r\n Frame rate : 50.000 fps\r\n Color space : YUV\r\n Chroma subsampling : 4:2:0\r\n Bit depth : 8 bits\r\n Scan type : Progressive\r\n Bits/(Pixel*Frame) : 0.058\r\n Stream size : 2.31 GiB (96%)\r\n Language : English\r\n Encoded date : UTC 2016-08-27 10:58:50\r\n Tagged date : UTC 2016-08-27 11:55:22\r\n\r\n Audio\r\n ID : 2\r\n Format : AAC\r\n Format/Info : Advanced Audio Codec\r\n Format profile : LC\r\n Codec ID : 40\r\n Duration : 55mn 5s\r\n Bit rate mode : Constant\r\n Bit rate : 256 Kbps\r\n Channel(s) : 2 channels\r\n Channel positions : Front: L R\r\n Sampling rate : 48.0 KHz\r\n Frame rate : 46.875 fps (1024 spf)\r\n Compression mode : Lossy\r\n Stream size : 99.8 MiB (4%)\r\n Language : English\r\n Encoded date : UTC 2016-08-27 10:58:50\r\n Tagged date : UTC 2016-08-27 11:55:22","torrent":{"xt":"urn:btih:eb2862b132da69ff0169699d2853f2eee3850b35","amp;dn":"Formula.1.2016x13.Belgium.Qualifying.SkyF1HD.1080p50-smcgill1969","amp;tr":["udp%3A%2F%2Ftracker.leechers-paradise.org%3A6969","udp%3A%2F%2Fzer0day.ch%3A1337","udp%3A%2F%2Fopen.demonii.com%3A1337","udp%3A%2F%2Ftracker.coppersurfer.tk%3A6969","udp%3A%2F%2Fexodus.desync.com%3A6969"],"infoHash":"eb2862b132da69ff0169699d2853f2eee3850b35","infoHashBuffer":{"type":"Buffer","data":[235,40,98,177,50,218,105,255,1,105,105,157,40,83,242,238,227,133,11,53]},"announce":[],"urlList":[]}}